<?xml version="1.0" encoding="utf-8"?>
<!-- Generator: Adobe Illustrator 27.5.0, SVG Export Plug-In . SVG Version: 6.00 Build 0)  -->
<svg version="1.1" id="Layer_1" xmlns="http://www.w3.org/2000/svg" xmlns:xlink="http://www.w3.org/1999/xlink" x="0px" y="0px"
	 viewBox="0 0 2122 2122" style="enable-background:new 0 0 2122 2122;" xml:space="preserve">
<g>
	<g>
		<defs>
			<rect id="SVGID_1_" width="2121.32" height="2121.32"/>
		</defs>
		<use xlink:href="#SVGID_1_"  style="overflow:visible;fill:#FFFFFF;"/>
		<clipPath id="SVGID_00000067939894961591586360000009170832950768158082_">
			<use xlink:href="#SVGID_1_"  style="overflow:visible;"/>
		</clipPath>
		<g style="clip-path:url(#SVGID_00000067939894961591586360000009170832950768158082_);">
			<path style="fill:#FF2121;" d="M1823.996,1225.211c-0.029,0-0.065,0-0.094,0c-1.877-0.05-3.424-1.503-3.575-3.377l-37.98-455.713
				l-40.209,337.243c-0.216,1.82-1.741,3.205-3.567,3.248c-1.77-0.029-3.424-1.276-3.719-3.082l-31.944-193.249l-11.977,92.187
				c-0.208,1.586-1.41,2.856-2.985,3.147c-1.568,0.281-3.15-0.46-3.906-1.87l-28.283-52.319h-365.94
				c-2.035,0-3.683-1.648-3.683-3.683c0-2.036,1.648-3.683,3.683-3.683h368.134c1.352,0,2.597,0.741,3.237,1.931l23.91,44.219
				l13.717-105.626c0.237-1.809,1.763-3.176,3.589-3.208c1.949-0.205,3.395,1.281,3.698,3.083l31.793,192.317l41.446-347.644
				c0.216-1.878,1.813-3.413,3.719-3.247c1.892,0.036,3.446,1.492,3.604,3.377l38.195,458.28l42.101-312.441
				c0.231-1.712,1.618-3.032,3.337-3.176c1.705-0.172,3.316,0.928,3.827,2.571l21.687,69.565h700.461
				c2.035,0,3.683,1.647,3.683,3.683c0,2.035-1.648,3.683-3.683,3.683h-703.173c-1.611,0-3.035-1.047-3.517-2.586l-17.544-56.282
				l-44.396,329.464C1827.398,1223.851,1825.837,1225.211,1823.996,1225.211z"/>
		</g>
		<g style="clip-path:url(#SVGID_00000067939894961591586360000009170832950768158082_);">
			<path style="fill:#FF2121;" d="M294.265,1225.211c-0.029,0-0.061,0-0.093,0c-1.878-0.05-3.42-1.503-3.575-3.377l-37.976-455.709
				l-40.206,337.239c-0.219,1.824-1.74,3.205-3.575,3.248c-2.176,0.015-3.416-1.276-3.715-3.082l-31.948-193.246l-11.977,92.183
				c-0.206,1.582-1.41,2.856-2.978,3.147c-1.597,0.263-3.154-0.464-3.913-1.87l-28.283-52.319h-541.9
				c-2.036,0-3.683-1.648-3.683-3.683c0-2.036,1.647-3.683,3.683-3.683h544.094c1.352,0,2.597,0.741,3.241,1.931l23.906,44.219
				l13.721-105.626c0.234-1.809,1.762-3.176,3.586-3.208c1.798-0.205,3.398,1.281,3.697,3.083l31.797,192.317l41.443-347.644
				c0.223-1.878,1.575-3.413,3.723-3.247c1.892,0.036,3.449,1.492,3.603,3.377l38.192,458.28l42.097-312.441
				c0.23-1.712,1.619-3.032,3.341-3.176c1.687-0.176,3.309,0.921,3.827,2.571l21.687,69.565h700.464
				c2.036,0,3.683,1.647,3.683,3.683c0,2.035-1.647,3.683-3.683,3.683H363.373c-1.611,0-3.035-1.047-3.517-2.586l-17.547-56.286
				l-44.392,329.468C297.668,1223.851,296.103,1225.211,294.265,1225.211z"/>
		</g>
	</g>
	<g>
		<g>
			<path style="fill:#00425B;" d="M789.62,1616.384l-14.379,55.689h-6.632l-13.897-47.712l-13.983,47.712h-6.632l-14.379-55.689
				h6.164l11.61,48.813l14.055-48.813h6.244l14.055,48.891l11.689-48.891H789.62z"/>
			<path style="fill:#00425B;" d="M848.538,1619.39c4.107,2.417,7.33,5.791,9.675,10.106c2.344,4.323,3.517,9.214,3.517,14.695
				c0,5.474-1.173,10.387-3.517,14.724c-2.345,4.345-5.568,7.733-9.675,10.15c-4.107,2.424-8.739,3.639-13.897,3.639
				c-5.165,0-9.797-1.215-13.904-3.639c-4.107-2.417-7.33-5.805-9.675-10.15c-2.345-4.337-3.517-9.25-3.517-14.724
				c0-5.481,1.172-10.372,3.517-14.695c2.345-4.315,5.568-7.69,9.675-10.106c4.107-2.424,8.739-3.632,13.904-3.632
				C839.798,1615.758,844.431,1616.966,848.538,1619.39z M823.7,1623.735c-3.237,1.891-5.798,4.604-7.66,8.135
				c-1.87,3.525-2.806,7.632-2.806,12.321c0,4.682,0.935,8.79,2.806,12.322c1.863,3.524,4.424,6.236,7.66,8.135
				c3.237,1.892,6.884,2.842,10.941,2.842c4.05,0,7.696-0.949,10.933-2.842c3.245-1.899,5.798-4.61,7.668-8.135
				c1.863-3.532,2.797-7.64,2.797-12.322c0-4.69-0.935-8.797-2.797-12.321c-1.87-3.532-4.424-6.244-7.668-8.135
				c-3.237-1.9-6.883-2.849-10.933-2.849C830.584,1620.886,826.937,1621.836,823.7,1623.735z"/>
			<path style="fill:#00425B;" d="M912.75,1672.073l-15.243-23.227h-9.005v23.227h-5.604v-55.689h17.062
				c6.265,0,10.934,1.475,14.02,4.424c3.078,2.949,4.618,6.927,4.618,11.926c0,4.64-1.302,8.323-3.913,11.063
				c-2.605,2.733-6.38,4.366-11.329,4.892l15.717,23.385H912.75z M888.503,1644.66h11.063c8.949,0,13.422-3.87,13.422-11.61
				c0-7.898-4.474-11.847-13.422-11.847h-11.063V1644.66z"/>
			<path style="fill:#00425B;" d="M944.5,1667.649h20.22v4.424h-25.823v-55.689h5.603V1667.649z"/>
			<path style="fill:#00425B;" d="M1026.092,1659.074c-2.266,4.187-5.597,7.402-9.992,9.639c-4.395,2.237-9.703,3.359-15.911,3.359
				h-16.825v-55.689h16.825c9.372,0,16.594,2.467,21.679,7.387c5.079,4.928,7.618,11.732,7.618,20.421
				C1029.486,1649.932,1028.357,1654.888,1026.092,1659.074z M1017.718,1661.053c4.108-4.028,6.165-9.646,6.165-16.861
				s-2.057-12.84-6.165-16.867c-4.107-4.028-10.084-6.042-17.925-6.042h-10.825v45.812h10.825
				C1007.634,1667.095,1013.611,1665.08,1017.718,1661.053z"/>
			<path style="fill:#00425B;" d="M1116.213,1648.062c2.158,2.525,3.237,5.524,3.237,8.999c0,4.481-1.525,8.099-4.582,10.861
				c-3.05,2.77-7.474,4.151-13.264,4.151h-19.356v-55.689h19.119c5.574,0,9.775,1.251,12.595,3.755
				c2.82,2.503,4.223,5.855,4.223,10.07c0,3.632-0.971,6.545-2.92,8.725c-1.949,2.187-4.453,3.625-7.502,4.309
				C1111.235,1643.926,1114.055,1645.53,1116.213,1648.062z M1087.858,1641.264h12.796c3.891,0,6.855-0.906,8.884-2.726
				c2.028-1.813,3.042-4.301,3.042-7.459c0-3.107-1-5.553-2.999-7.344c-2.006-1.791-5.085-2.691-9.243-2.691h-12.48V1641.264z
				 M1110.365,1664.448c2.316-1.92,3.481-4.589,3.481-8.013c0-3.374-1.187-6.042-3.561-8.021c-2.367-1.97-5.632-2.963-9.79-2.963
				h-12.638v21.881h12.796C1104.812,1667.332,1108.049,1666.368,1110.365,1664.448z"/>
			<path style="fill:#00425B;" d="M1145.597,1667.649h20.219v4.424h-25.83v-55.689h5.611V1667.649z"/>
			<path style="fill:#00425B;" d="M1223.634,1619.39c4.107,2.417,7.33,5.791,9.675,10.106c2.338,4.323,3.51,9.214,3.51,14.695
				c0,5.474-1.172,10.387-3.51,14.724c-2.345,4.345-5.568,7.733-9.675,10.15c-4.107,2.424-8.747,3.639-13.904,3.639
				c-5.157,0-9.797-1.215-13.904-3.639c-4.107-2.417-7.33-5.805-9.675-10.15c-2.338-4.337-3.51-9.25-3.51-14.724
				c0-5.481,1.172-10.372,3.51-14.695c2.345-4.315,5.568-7.69,9.675-10.106c4.107-2.424,8.747-3.632,13.904-3.632
				C1214.887,1615.758,1219.527,1616.966,1223.634,1619.39z M1198.79,1623.735c-3.237,1.891-5.791,4.604-7.661,8.135
				c-1.87,3.525-2.805,7.632-2.805,12.321c0,4.682,0.935,8.79,2.805,12.322c1.87,3.524,4.424,6.236,7.661,8.135
				c3.236,1.892,6.883,2.842,10.94,2.842c4.057,0,7.704-0.949,10.941-2.842c3.236-1.899,5.79-4.61,7.66-8.135
				c1.87-3.532,2.806-7.64,2.806-12.322c0-4.69-0.935-8.797-2.806-12.321c-1.87-3.532-4.424-6.244-7.66-8.135
				c-3.237-1.9-6.884-2.849-10.941-2.849C1205.673,1620.886,1202.026,1621.836,1198.79,1623.735z"/>
			<path style="fill:#00425B;" d="M1297.162,1619.39c4.107,2.417,7.33,5.791,9.675,10.106c2.345,4.323,3.517,9.214,3.517,14.695
				c0,5.474-1.172,10.387-3.517,14.724c-2.345,4.345-5.568,7.733-9.675,10.15c-4.107,2.424-8.739,3.639-13.897,3.639
				c-5.165,0-9.797-1.215-13.904-3.639c-4.107-2.417-7.33-5.805-9.675-10.15c-2.344-4.337-3.517-9.25-3.517-14.724
				c0-5.481,1.173-10.372,3.517-14.695c2.345-4.315,5.568-7.69,9.675-10.106c4.107-2.424,8.739-3.632,13.904-3.632
				C1288.422,1615.758,1293.054,1616.966,1297.162,1619.39z M1272.324,1623.735c-3.236,1.891-5.797,4.604-7.66,8.135
				c-1.87,3.525-2.805,7.632-2.805,12.321c0,4.682,0.935,8.79,2.805,12.322c1.863,3.524,4.424,6.236,7.66,8.135
				c3.237,1.892,6.884,2.842,10.941,2.842c4.05,0,7.696-0.949,10.934-2.842c3.244-1.899,5.797-4.61,7.668-8.135
				c1.863-3.532,2.798-7.64,2.798-12.322c0-4.69-0.935-8.797-2.798-12.321c-1.87-3.532-4.424-6.244-7.668-8.135
				c-3.237-1.9-6.884-2.849-10.934-2.849C1279.208,1620.886,1275.561,1621.836,1272.324,1623.735z"/>
			<path style="fill:#00425B;" d="M1374.25,1659.074c-2.266,4.187-5.596,7.402-9.991,9.639c-4.395,2.237-9.704,3.359-15.911,3.359
				h-16.824v-55.689h16.824c9.373,0,16.595,2.467,21.68,7.387c5.079,4.928,7.618,11.732,7.618,20.421
				C1377.645,1649.932,1376.516,1654.888,1374.25,1659.074z M1365.877,1661.053c4.107-4.028,6.164-9.646,6.164-16.861
				s-2.057-12.84-6.164-16.867c-4.107-4.028-10.084-6.042-17.925-6.042h-10.825v45.812h10.825
				C1355.792,1667.095,1361.77,1665.08,1365.877,1661.053z"/>
		</g>
		<g>
			<path style="fill:#FF2513;" d="M800.725,1765.395c-3.82,6.869-9.272,12.279-16.357,16.227c-7.085,3.942-15.336,5.92-24.752,5.92
				h-37.547v-90.115h37.547c9.416,0,17.667,1.914,24.752,5.726c7.085,3.819,12.537,9.128,16.357,15.911
				c3.819,6.791,5.725,14.509,5.725,23.17C806.451,1750.8,804.545,1758.519,800.725,1765.395z M772.219,1757.123
				c3.733-3.481,5.596-8.444,5.596-14.889c0-6.452-1.863-11.416-5.596-14.897c-3.74-3.474-8.783-5.215-15.149-5.215h-6.747v40.216
				h6.747C763.437,1762.338,768.479,1760.605,772.219,1757.123z"/>
			<path style="fill:#FF2513;" d="M929.661,1701.823c7.042,3.942,12.617,9.438,16.73,16.479c4.115,7.042,6.179,14.976,6.179,23.802
				c0,8.826-2.065,16.76-6.179,23.802c-4.114,7.042-9.71,12.559-16.795,16.544c-7.085,3.992-14.832,5.985-23.226,5.985
				c-8.488,0-16.278-1.993-23.356-5.985c-7.086-3.985-12.71-9.502-16.868-16.544c-4.157-7.042-6.236-14.976-6.236-23.802
				c0-8.826,2.079-16.76,6.236-23.802c4.158-7.042,9.782-12.537,16.868-16.479c7.078-3.949,14.868-5.92,23.356-5.92
				C914.85,1695.903,922.612,1697.874,929.661,1701.823z M893.257,1727.401c-3.057,3.611-4.582,8.51-4.582,14.703
				c0,6.107,1.525,10.969,4.582,14.573c3.057,3.603,7.423,5.409,13.113,5.409c5.596,0,9.926-1.806,12.976-5.409
				c3.057-3.604,4.581-8.466,4.581-14.573c0-6.193-1.525-11.092-4.581-14.703c-3.05-3.604-7.38-5.409-12.976-5.409
				C900.68,1721.992,896.314,1723.797,893.257,1727.401z"/>
			<path style="fill:#FF2513;" d="M1094.986,1787.542h-28.255l-29.908-45.309v45.309h-28.254v-90.115h28.254l29.908,46.072v-46.072
				h28.255V1787.542z"/>
			<path style="fill:#FF2513;" d="M1220.735,1701.823c7.042,3.942,12.624,9.438,16.739,16.479
				c4.115,7.042,6.172,14.976,6.172,23.802c0,8.826-2.057,16.76-6.172,23.802c-4.115,7.042-9.718,12.559-16.803,16.544
				c-7.086,3.992-14.825,5.985-23.227,5.985c-8.488,0-16.271-1.993-23.356-5.985c-7.085-3.985-12.71-9.502-16.86-16.544
				c-4.165-7.042-6.237-14.976-6.237-23.802c0-8.826,2.071-16.76,6.237-23.802c4.15-7.042,9.775-12.537,16.86-16.479
				c7.085-3.949,14.868-5.92,23.356-5.92C1205.925,1695.903,1213.693,1697.874,1220.735,1701.823z M1184.338,1727.401
				c-3.057,3.611-4.581,8.51-4.581,14.703c0,6.107,1.525,10.969,4.581,14.573c3.05,3.603,7.423,5.409,13.106,5.409
				c5.604,0,9.927-1.806,12.984-5.409c3.057-3.604,4.582-8.466,4.582-14.573c0-6.193-1.525-11.092-4.582-14.703
				c-3.057-3.604-7.38-5.409-12.984-5.409C1191.761,1721.992,1187.388,1723.797,1184.338,1727.401z"/>
			<path style="fill:#FF2513;" d="M1344.96,1787.542l-17.055-32.332v32.332h-28.254v-90.115h42.001
				c7.301,0,13.537,1.295,18.709,3.885c5.179,2.59,9.056,6.107,11.646,10.559c2.589,4.46,3.884,9.488,3.884,15.083
				c0,6.028-1.676,11.373-5.028,16.041c-3.352,4.668-8.164,8.013-14.444,10.056l19.602,34.491H1344.96z M1327.905,1736.378h11.2
				c2.719,0,4.755-0.619,6.114-1.848c1.352-1.23,2.036-3.158,2.036-5.791c0-2.373-0.705-4.244-2.101-5.603
				c-1.402-1.352-3.416-2.036-6.049-2.036h-11.2V1736.378z"/>
		</g>
		<g>
			<path style="fill:#00425B;" d="M1014.791,1852.057c-2.294,4.244-5.668,7.495-10.128,9.768c-4.453,2.266-9.833,3.402-16.134,3.402
				h-17.048v-56.444h17.048c9.502,0,16.831,2.496,21.981,7.488c5.15,4.985,7.726,11.883,7.726,20.695
				C1018.237,1842.785,1017.086,1847.813,1014.791,1852.057z M1006.303,1854.057c4.165-4.086,6.244-9.782,6.244-17.091
				c0-7.316-2.079-13.012-6.244-17.098c-4.157-4.078-10.221-6.122-18.17-6.122h-10.969v46.438h10.969
				C996.081,1860.185,1002.146,1858.143,1006.303,1854.057z"/>
			<path style="fill:#00425B;" d="M1072.278,1851.453h-25.701l-5.121,13.775h-6.006l20.816-55.164h6.323l20.817,55.164h-6.085
				L1072.278,1851.453z M1070.595,1846.972l-11.128-30.42l-11.293,30.42H1070.595z"/>
			<path style="fill:#00425B;" d="M1140.325,1808.784l-18.17,34.426v22.018h-5.69v-22.018l-18.248-34.426h6.48l14.574,28.42
				l14.573-28.42H1140.325z"/>
		</g>
		<rect x="838.092" y="1836.121" style="fill:#00425B;" width="112.259" height="5.044"/>
		<rect x="1152.418" y="1836.121" style="fill:#00425B;" width="109.132" height="5.044"/>
	</g>
	<g>
		
			<linearGradient id="SVGID_00000105407776265310449480000005090288955693113506_" gradientUnits="userSpaceOnUse" x1="1358.9565" y1="649.5809" x2="919.2675" y2="1284.6863">
			<stop  offset="0" style="stop-color:#FF5E58"/>
			<stop  offset="0.5448" style="stop-color:#EF150D"/>
			<stop  offset="0.6788" style="stop-color:#E11209"/>
			<stop  offset="0.8856" style="stop-color:#C30D00"/>
			<stop  offset="1" style="stop-color:#EF150D"/>
		</linearGradient>
		<path style="fill:url(#SVGID_00000105407776265310449480000005090288955693113506_);" d="M1113.164,392.099
			c-0.389-2.551-2.392-4.671-5.079-5.079c-3.306-0.501-6.392,1.773-6.891,5.079c-15.781,104.147-103.132,222.905-181.55,348.008
			c9.387-2.384,19.249-3.977,29.581-4.461c113.748-5.362,180.412,78.356,185.238,159.791c4.969,83.869-51.67,155.105-94.7,201.392
			c-54.653,58.783-139.245,121.812-194.563,153.694l-2.574,1.484c96.695,140.754,288.003,181.765,434.393,90.553
			C1681.645,1090.448,1148.339,624.237,1113.164,392.099z"/>
		<g>
			
				<linearGradient id="SVGID_00000060008833723144386850000010871772314162479548_" gradientUnits="userSpaceOnUse" x1="1333.146" y1="819.4937" x2="960.5989" y2="1355.5986">
				<stop  offset="0" style="stop-color:#FF5E58"/>
				<stop  offset="0.5448" style="stop-color:#EF150D"/>
				<stop  offset="0.6788" style="stop-color:#E11209"/>
				<stop  offset="0.8856" style="stop-color:#C30D00"/>
				<stop  offset="1" style="stop-color:#EF150D"/>
			</linearGradient>
			<path style="fill:url(#SVGID_00000060008833723144386850000010871772314162479548_);" d="M1187.533,618.375
				c135.689,246.946,270.982,530.928,6.974,713.663c-13.285,9.195-26.953,17.115-40.873,23.918
				c26.765-8.024,52.93-19.621,77.785-35.107C1519.561,1141.313,1332.067,853.208,1187.533,618.375z"/>
		</g>
		
			<linearGradient id="SVGID_00000153705717998168434740000013378913234840060588_" gradientUnits="userSpaceOnUse" x1="831.119" y1="832.6682" x2="831.119" y2="1228.2064">
			<stop  offset="0" style="stop-color:#FF5E58"/>
			<stop  offset="0.5448" style="stop-color:#EF150D"/>
			<stop  offset="0.6788" style="stop-color:#E11209"/>
			<stop  offset="0.8856" style="stop-color:#C30D00"/>
			<stop  offset="1" style="stop-color:#EF150D"/>
		</linearGradient>
		<path style="fill:url(#SVGID_00000153705717998168434740000013378913234840060588_);" d="M1105.469,897.16
			c-4.288-72.428-64.87-136.706-154.885-132.496c-71.888,3.367-119.376,72.5-119.376,72.5s-47.296-69.256-119.19-72.819
			c-89.99-4.446-150.756,59.675-155.226,132.09c-4.427,71.562,45.886,136.193,86.509,180.123
			c55.224,59.72,138.639,120.536,187.394,148.802c48.826-28.142,132.409-88.739,187.794-148.308
			C1059.23,1033.228,1109.708,968.741,1105.469,897.16z"/>
	</g>
	
		<radialGradient id="SVGID_00000172442074729867879930000001885355603466487696_" cx="975.8707" cy="20501.0273" r="667.8698" gradientTransform="matrix(1.0441 0 0 0.1209 42.8448 -977.0636)" gradientUnits="userSpaceOnUse">
		<stop  offset="0" style="stop-color:#FC4F49"/>
		<stop  offset="0.1167" style="stop-color:#FD7672"/>
		<stop  offset="0.26" style="stop-color:#FDA09D"/>
		<stop  offset="0.4058" style="stop-color:#FEC2C0"/>
		<stop  offset="0.5521" style="stop-color:#FEDDDC"/>
		<stop  offset="0.6993" style="stop-color:#FFF0EF"/>
		<stop  offset="0.8478" style="stop-color:#FFFBFB"/>
		<stop  offset="1" style="stop-color:#FFFFFF"/>
	</radialGradient>
	
		<ellipse style="opacity:0.4;fill:url(#SVGID_00000172442074729867879930000001885355603466487696_);" cx="1061.751" cy="1501.51" rx="697.286" ry="80.75"/>
</g>
</svg>
